<svg xmlns="http://www.w3.org/2000/svg" width="430" height="70" viewBox="0 0 430 70"><defs><style>.a{opacity:0.5;}.b{fill:#639;opacity:0.3;}</style></defs><g class="a"><circle class="b" cx="5" cy="5" r="5" transform="translate(260 20)"/><circle class="b" cx="5" cy="5" r="5" transform="translate(280 20)"/><circle class="b" cx="5" cy="5" r="5" transform="translate(300 20)"/><circle class="b" cx="5" cy="5" r="5" transform="translate(320 20)"/><circle class="b" cx="5" cy="5" r="5" transform="translate(340 20)"/><circle class="b" cx="5" cy="5" r="5" transform="translate(360 20)"/><circle class="b" cx="5" cy="5" r="5" transform="translate(380 20)"/><circle class="b" cx="5" cy="5" r="5" transform="translate(400 20)"/><circle class="b" cx="5" cy="5" r="5" transform="translate(420 20)"/><circle class="b" cx="5" cy="5" r="5" transform="translate(260 40)"/><circle class="b" cx="5" cy="5" r="5" transform="translate(280 40)"/><circle class="b" cx="5" cy="5" r="5" transform="translate(300 40)"/><circle class="b" cx="5" cy="5" r="5" transform="translate(320 40)"/><circle class="b" cx="5" cy="5" r="5" transform="translate(340 40)"/><circle class="b" cx="5" cy="5" r="5" transform="translate(360 40)"/><circle class="b" cx="5" cy="5" r="5" transform="translate(380 40)"/><circle class="b" cx="5" cy="5" r="5" transform="translate(400 40)"/><circle class="b" cx="5" cy="5" r="5" transform="translate(420 40)"/><circle class="b" cx="5" cy="5" r="5" transform="translate(260 60)"/><circle class="b" cx="5" cy="5" r="5" transform="translate(280 60)"/><circle class="b" cx="5" cy="5" r="5" transform="translate(300 60)"/><circle class="b" cx="5" cy="5" r="5" transform="translate(320 60)"/><circle class="b" cx="5" cy="5" r="5" transform="translate(340 60)"/><circle class="b" cx="5" cy="5" r="5" transform="translate(360 60)"/><circle class="b" cx="5" cy="5" r="5" transform="translate(380 60)"/><circle class="b" cx="5" cy="5" r="5" transform="translate(400 60)"/><circle class="b" cx="5" cy="5" r="5" transform="translate(420 60)"/><circle class="b" cx="5" cy="5" r="5" transform="translate(80 20)"/><circle class="b" cx="5" cy="5" r="5" transform="translate(100 20)"/><circle class="b" cx="5" cy="5" r="5" transform="translate(120 20)"/><circle class="b" cx="5" cy="5" r="5" transform="translate(140 20)"/><circle class="b" cx="5" cy="5" r="5" transform="translate(160 20)"/><circle class="b" cx="5" cy="5" r="5" transform="translate(180 20)"/><circle class="b" cx="5" cy="5" r="5" transform="translate(200 20)"/><circle class="b" cx="5" cy="5" r="5" transform="translate(220 20)"/><circle class="b" cx="5" cy="5" r="5" transform="translate(240 20)"/><circle class="b" cx="5" cy="5" r="5" transform="translate(80 40)"/><circle class="b" cx="5" cy="5" r="5" transform="translate(100 40)"/><circle class="b" cx="5" cy="5" r="5" transform="translate(120 40)"/><circle class="b" cx="5" cy="5" r="5" transform="translate(140 40)"/><circle class="b" cx="5" cy="5" r="5" transform="translate(160 40)"/><circle class="b" cx="5" cy="5" r="5" transform="translate(180 40)"/><circle class="b" cx="5" cy="5" r="5" transform="translate(200 40)"/><circle class="b" cx="5" cy="5" r="5" transform="translate(220 40)"/><circle class="b" cx="5" cy="5" r="5" transform="translate(240 40)"/><circle class="b" cx="5" cy="5" r="5" transform="translate(80 60)"/><circle class="b" cx="5" cy="5" r="5" transform="translate(100 60)"/><circle class="b" cx="5" cy="5" r="5" transform="translate(120 60)"/><circle class="b" cx="5" cy="5" r="5" transform="translate(140 60)"/><circle class="b" cx="5" cy="5" r="5" transform="translate(160 60)"/><circle class="b" cx="5" cy="5" r="5" transform="translate(180 60)"/><circle class="b" cx="5" cy="5" r="5" transform="translate(200 60)"/><circle class="b" cx="5" cy="5" r="5" transform="translate(220 60)"/><circle class="b" cx="5" cy="5" r="5" transform="translate(240 60)"/><circle class="b" cx="5" cy="5" r="5" transform="translate(0 20)"/><circle class="b" cx="5" cy="5" r="5" transform="translate(20 20)"/><circle class="b" cx="5" cy="5" r="5" transform="translate(40 20)"/><circle class="b" cx="5" cy="5" r="5" transform="translate(60 20)"/><circle class="b" cx="5" cy="5" r="5" transform="translate(0 40)"/><circle class="b" cx="5" cy="5" r="5" transform="translate(20 40)"/><circle class="b" cx="5" cy="5" r="5" transform="translate(40 40)"/><circle class="b" cx="5" cy="5" r="5" transform="translate(60 40)"/><circle class="b" cx="5" cy="5" r="5" transform="translate(0 60)"/><circle class="b" cx="5" cy="5" r="5" transform="translate(20 60)"/><circle class="b" cx="5" cy="5" r="5" transform="translate(40 60)"/><circle class="b" cx="5" cy="5" r="5" transform="translate(60 60)"/><circle class="b" cx="5" cy="5" r="5" transform="translate(260)"/><circle class="b" cx="5" cy="5" r="5" transform="translate(280)"/><circle class="b" cx="5" cy="5" r="5" transform="translate(300)"/><circle class="b" cx="5" cy="5" r="5" transform="translate(320)"/><circle class="b" cx="5" cy="5" r="5" transform="translate(340)"/><circle class="b" cx="5" cy="5" r="5" transform="translate(360)"/><circle class="b" cx="5" cy="5" r="5" transform="translate(380)"/><circle class="b" cx="5" cy="5" r="5" transform="translate(400)"/><circle class="b" cx="5" cy="5" r="5" transform="translate(420)"/><circle class="b" cx="5" cy="5" r="5" transform="translate(80)"/><circle class="b" cx="5" cy="5" r="5" transform="translate(100)"/><circle class="b" cx="5" cy="5" r="5" transform="translate(120)"/><circle class="b" cx="5" cy="5" r="5" transform="translate(140)"/><circle class="b" cx="5" cy="5" r="5" transform="translate(160)"/><circle class="b" cx="5" cy="5" r="5" transform="translate(180)"/><circle class="b" cx="5" cy="5" r="5" transform="translate(200)"/><circle class="b" cx="5" cy="5" r="5" transform="translate(220)"/><circle class="b" cx="5" cy="5" r="5" transform="translate(240)"/><circle class="b" cx="5" cy="5" r="5"/><circle class="b" cx="5" cy="5" r="5" transform="translate(20)"/><circle class="b" cx="5" cy="5" r="5" transform="translate(40)"/><circle class="b" cx="5" cy="5" r="5" transform="translate(60)"/></g></svg>